# xmcd CD database file
#
# Track frame offsets:
#	150
#	13937
#	44717
#	78524
#	108391
#	137323
#	162730
#	182769
#	203396
#
# Disc length: 2939 seconds
#
# Revision: 0
# Processed by: cddbd v1.5.1PL0 Copyright (c) Steve Scherf et al.
# Submitted via: CDex 1.51
#
DISCID=750b7909
DTITLE=Fuzzy - Not Gonna Work This Time
DYEAR=2004
DGENRE=Blues
TTITLE0=a walk blues
TTITLE1=a slow walk home
TTITLE2=they call me fuzzy
TTITLE3=aint no use
TTITLE4=falling in love again
TTITLE5=let me love you tonight
TTITLE6=funky rhythm blues
TTITLE7=not gonna work this time
TTITLE8=lets jam those blues
EXTD=YEAR: 2004
EXTT0=
EXTT1=
EXTT2=
EXTT3=
EXTT4=
EXTT5=
EXTT6=
EXTT7=
EXTT8=
PLAYORDER=
